<?xml version="1.0" standalone="no"?>
<!DOCTYPE svg PUBLIC "-//W3C//DTD SVG 20010904//EN"
 "http://www.w3.org/TR/2001/REC-SVG-20010904/DTD/svg10.dtd">
<svg version="1.0" xmlns="http://www.w3.org/2000/svg"
 width="708.000000pt" height="708.000000pt" viewBox="0 0 708.000000 708.000000"
 preserveAspectRatio="xMidYMid meet">
<metadata>
Created by potrace 1.14, written by Peter Selinger 2001-2017
</metadata>
<g transform="translate(0.000000,708.000000) scale(0.100000,-0.100000)"
fill="#000000" stroke="none">
<path d="M5181 5498 c-30 -8 -135 -103 -181 -163 -20 -26 -103 -214 -125 -283
-12 -39 -21 -52 -32 -48 -35 14 -146 26 -190 21 -185 -21 -337 -110 -432 -251
-28 -41 -81 -149 -81 -165 0 -19 -157 -375 -229 -519 -112 -224 -169 -328
-296 -540 l-27 -45 -24 30 c-14 17 -46 65 -72 108 -26 43 -60 99 -76 125 -92
151 -346 639 -346 666 0 3 -13 33 -28 68 -16 35 -44 98 -62 141 -59 138 -143
229 -276 299 -38 20 -95 41 -126 48 -72 14 -189 15 -248 1 -25 -6 -48 -11 -51
-11 -4 0 -12 15 -19 33 -7 17 -16 41 -21 52 -5 11 -18 44 -29 74 -63 164 -213
331 -298 331 -26 0 -37 -12 -112 -124 -90 -137 -92 -149 -37 -188 83 -59 142
-146 203 -300 l22 -57 -32 -43 c-89 -119 -121 -213 -120 -353 0 -130 13 -171
122 -385 228 -452 483 -807 852 -1183 80 -82 146 -154 148 -162 3 -14 -90
-117 -248 -276 -147 -147 -251 -240 -430 -384 -91 -72 -172 -145 -180 -160 -9
-16 -15 -53 -15 -86 1 -49 5 -64 31 -96 38 -47 87 -73 140 -73 45 0 263 54
389 95 284 95 577 237 844 409 56 36 106 66 111 66 5 0 57 -30 116 -66 136
-84 359 -198 494 -254 58 -23 119 -48 135 -55 124 -52 344 -116 503 -147 86
-17 111 -19 142 -9 148 44 176 228 48 319 -24 17 -48 35 -53 39 -6 4 -28 21
-50 37 -171 126 -354 285 -530 461 -66 66 -135 137 -154 157 l-34 37 89 93
c154 162 187 200 295 333 267 332 484 682 642 1035 54 123 62 159 61 285 -1
96 -5 132 -23 179 -23 65 -70 145 -109 188 -24 26 -25 30 -13 70 36 122 132
274 203 322 46 30 47 63 5 123 -18 26 -53 76 -76 111 -50 73 -64 82 -110 70z"/>
</g>
</svg>
